/* XPM */
static char *_8695baaa1564103ca420f203c6eebb4GWjjEHnabx2sxra2[] = {
/* columns rows colors chars-per-pixel */
"32 32 170 2 ",
"   c #130E08",
".  c #1C140B",
"X  c #191710",
"o  c #3D0E07",
"O  c #3F0F0A",
"+  c #21160B",
"@  c #2F1E0F",
"#  c #361107",
"$  c #3B150C",
"%  c #31190B",
"&  c #3C190F",
"*  c #241E12",
"=  c #371C11",
"-  c #3D1D13",
";  c #22200F",
":  c #2C200E",
">  c #262014",
",  c #2D2413",
"<  c #262816",
"1  c #2C2B15",
"2  c #272719",
"3  c #2B2719",
"4  c #2C2A1B",
"5  c #342715",
"6  c #3B2416",
"7  c #332B16",
"8  c #382A16",
"9  c #3A2618",
"0  c #342C1B",
"q  c #392D1B",
"w  c #2E321B",
"e  c #34331E",
"r  c #39311D",
"t  c #272821",
"y  c #2D2C20",
"u  c #382E20",
"i  c #333323",
"p  c #3C3522",
"a  c #353B22",
"s  c #3C3B25",
"d  c #37362A",
"f  c #3D3D2B",
"g  c #420705",
"h  c #410A06",
"j  c #420D08",
"k  c #43130D",
"l  c #421D13",
"z  c #442116",
"x  c #462519",
"c  c #4A261B",
"v  c #432B1C",
"b  c #4B2B1E",
"n  c #44331F",
"m  c #452F22",
"M  c #4B2E20",
"N  c #443321",
"B  c #4A3323",
"V  c #433A25",
"C  c #4A3C26",
"Z  c #433D2A",
"A  c #4C3D29",
"S  c #523425",
"D  c #523C29",
"F  c #374023",
"G  c #3C4127",
"H  c #3E422B",
"J  c #3F482B",
"K  c #43442D",
"L  c #4B432D",
"P  c #42492E",
"I  c #53422D",
"U  c #444532",
"Y  c #4B4531",
"T  c #454A32",
"R  c #4A4B34",
"E  c #4D4E38",
"W  c #554631",
"Q  c #584632",
"!  c #524C35",
"~  c #524E39",
"^  c #475134",
"/  c #4C5136",
"(  c #4E5239",
")  c #535137",
"_  c #52543B",
"`  c #5B543C",
"'  c #555A3E",
"]  c #595A3F",
"[  c #62543B",
"{  c #6A553D",
"}  c #565640",
"|  c #5C5441",
" . c #565B40",
".. c #5B5D42",
"X. c #605740",
"o. c #635C44",
"O. c #6D5E45",
"+. c #615F48",
"@. c #705940",
"#. c #785F45",
"$. c #5D6244",
"%. c #5F6648",
"&. c #626245",
"*. c #6D6146",
"=. c #636449",
"-. c #6C654B",
";. c #646A4B",
":. c #6B6A4E",
">. c #73634A",
",. c #7B654B",
"<. c #72694D",
"1. c #6D6C50",
"2. c #746C53",
"3. c #796F56",
"4. c #6D7354",
"5. c #767256",
"6. c #797055",
"7. c #7A7055",
"8. c #797156",
"9. c #787357",
"0. c #7A7156",
"q. c #7B7559",
"w. c #7D775C",
"e. c #7E765C",
"r. c #7D7359",
"t. c #82654A",
"y. c #82654B",
"u. c #81674C",
"i. c #86694E",
"p. c #81684E",
"a. c #826B51",
"s. c #846B52",
"d. c #837057",
"f. c #8A7157",
"g. c #887156",
"h. c #817459",
"j. c #87755B",
"k. c #87775E",
"l. c #82755C",
"z. c #88745B",
"x. c #8B755B",
"c. c #88765C",
"v. c #8C745A",
"b. c #81785D",
"n. c #81785E",
"m. c #82785E",
"M. c #827A5F",
"N. c #83785D",
"B. c #8E785F",
"V. c #90775E",
"C. c #8A7B62",
"Z. c #927C63",
"A. c #957E65",
"S. c #957E66",
"D. c #997F68",
"F. c #898065",
"G. c #938067",
"H. c #928067",
"J. c #978168",
"K. c #94836A",
"L. c #988269",
"P. c #9B836B",
"I. c #9A846B",
"U. c #9C846A",
"Y. c #9D856C",
"T. c #9F866E",
"R. c #998068",
"E. c #A48B73",
"W. c #A58C74",
"Q. c #A78F76",
/* pixels */
"k v d f T ' ;.=.' ......( R H d d t i d K U T H U U ( / ' ! z & ",
"# $ - s T ( =.;./ ( $..._ P 2 i T i w f _ R f T s i H a p l $ % ",
", 5 B n A o.-.2.=.=./ R ] ) r 6 v p ~ ] _ / T ..` ] ` C C C 8 , ",
"e 7 V E ! [ <.8.q.-.K L L L T A A L L L L K ] q.8.*.{ o.` V r 1 ",
"p 0 7 H ' ..` *.<.[ ) &.;.:.$.%.%.$.:.;.&.` ` *.O.[ &.$.H 7 w 1 ",
"a a 7 e / ' _ ! { >.5.n.n.1.;.:.2.;.;.w.n.8.>.@.` _ ' _ e 7 1 ; ",
"T K 1 , K R L X.d.,.u.x.5.;.w.G.K.n.:.1.x.y.,.j.-.L R K , 1 1 * ",
"R  .T , 0 p V | 8.Z.f.` =.c.P.E.Q.Y.B.-.` a.A.l.o.V r 0 7 e s 4 ",
"K ..} q $ 5 K T 3.I.2...>.y.U.Q.Q.Y.i.>.=.=.P.k.~ K 5 - R R s 1 ",
"T .._ R k 6 T ] 2.r.' ;.e.s.s.P.D.f.v.l.1.' 2.r...E = k ....T 3 ",
"T =. .A k l Y K ] :.:.2.2.K.f.a.a.V.G.3.8.;.+.| K R l c S $.( G ",
"R $.' x A b p K _ q.n.F.l.x.,.A.v.#.s.C.k.:.R .._ V B L l T T H ",
"e R R l ~ K 7 K ] _ _ 2.,.f.A.l.r.x.,.p.-.T K } H 9 ~ ' z p T H ",
"X 4 V l / H @ s ..f 0 L -.-.C.-.:.e.-.O.V 0 f T 6 B $.$.v m / K ",
"4 i 6 z ( ( 0 q ` Z | ( ( f R H K / K K } ` Z e 6 ` &.$.N c  .K ",
"K _ N z T a K N I ~ -.R i K f i i H i Z ..] ~ r 7 ( $.$.N b $.f ",
"/ $.D c H , N L L ) -.=.i ] <.E ..1.K ] r.] -.L A 6 !  .N S ;.K ",
"_ =.! l v x Z K V ! o.` U K C.-.r.2.T E :.2.! ! Y 5 l B v M %./ ",
"U  .W h D :.-.K s N R ~ } H l.2.C.+._ R R _ V H H s s v h b ' / ",
"Z B - $ ! ;.4...s 7 4 K =.y | 2.l.d +.K 0 p s T P P ( T k l M K ",
"O g l O l B M v q 5 + > o.u 7 L Y , X.0 * @ 5 z z x c l j l h o ",
"B I Q B k B 6 7 L p . * ` ` p p Z L X.4 . V L 8 A D N k b B D B ",
"T ] %.' M v a K 1.K   > ~ -.U K E +._ i . _ -.K =.;.A c .. .' J ",
"T R ' ( T - Z K +.} * , p _ .._ ..+.U > 3 1._ / 4.-.c o.' / E H ",
"P _ &.' _ V x ~ K -.} p p Z R T R U f Y ~ 2.i ' =.M I $.R R / K ",
"a R _ P / ( W b L o.2.f e Y :.=.=.R s ` -.| K ) b D ..R ( /  .H ",
"e i T / T _ ;.o.c Q R R 0 r +.+.&.Y 0 K 2.` A z B ;.%.R _ ' $.T ",
"H T / ( T ' %.4./ r , e Z r L ~ ~ p , p L B x A d _ ;..._ _ ' ) ",
"K ( _ _ / ..;.;.' f > 0 0 7 8 p V 8 , 5 , T R T f ' $._ T _ ..( ",
"T ( ( ' ' %.;.%.' _ f f ) Z N L V 0 L R _ ;._ / H R ( R R ..&.( ",
"( ..' ' ' ;.%.%.' _ R H ( R ) b n _ R %.$._ ..$.T P T T T ' $.( ",
"H T P P P P T ^ T G a a P T T $ 6 ^ ^ / T a P J 1 e P a < a P F "
};
